
        <svg xmlns="http://www.w3.org/2000/svg" xmlns:xlink="http://www.w3.org/1999/xlink" version="1.1" width="3162.3616236162356" 
        height="937.2693726937266" viewBox="0 0 3162.3616236162356 937.2693726937266">
			
			<g transform="scale(8.118081180811808) translate(10, 10)">
				<defs id="SvgjsDefs1048"></defs><g id="SvgjsG1049" featureKey="T16ghp-0" transform="matrix(1.104337779766357,0,0,1.104337779766357,-1.9679273622133484,-1.9679273622133484)" fill="#6e0f2d"><g xmlns="http://www.w3.org/2000/svg"><circle fill="#6e0f2d" cx="45" cy="44.999" r="5.277"></circle><g><g><path fill="#6e0f2d" d="M45.214,33.672c24.117-31.271,0.369-31.89,0.369-31.89S21.827,1.851,45.214,33.672z"></path></g><g><path fill="#6e0f2d" d="M37.141,36.837c-5.059-39.164-22.288-22.81-22.288-22.81S-1.896,30.874,37.141,36.837z"></path></g><g><path fill="#6e0f2d" d="M33.67,44.786c-31.269-24.119-31.888-0.37-31.888-0.37S1.851,68.173,33.67,44.786z"></path></g><g><path fill="#6e0f2d" d="M36.837,52.859c-39.166,5.059-22.81,22.288-22.81,22.288S30.874,91.899,36.837,52.859z"></path></g><g><path fill="#6e0f2d" d="M44.785,56.33c-24.118,31.271-0.369,31.888-0.369,31.888S68.171,88.149,44.785,56.33z"></path></g><g><path fill="#6e0f2d" d="M52.859,53.164c5.057,39.164,22.287,22.81,22.287,22.81S91.896,59.127,52.859,53.164z"></path></g><g><path fill="#6e0f2d" d="M56.33,45.216c31.271,24.117,31.888,0.369,31.888,0.369S88.148,21.829,56.33,45.216z"></path></g><g><path fill="#6e0f2d" d="M53.162,37.142c39.166-5.061,22.811-22.289,22.811-22.289S59.126-1.896,53.162,37.142z"></path></g></g></g></g><g id="SvgjsG1050" featureKey="Fok8m0-0" transform="matrix(2.398656690137082,0,0,2.398656690137082,114.2804012487117,5.585754168133118)" fill="#750c29"><path d="M9.94 7.42 l0.64 0 l-0.7 2.72 l-0.72 0 c0.16 -1.46 -0.06 -1.84 -0.84 -1.84 l-1.66 0 l0 10.32 c0 0.5 0.38 0.66 1.46 0.74 l0 0.64 c-1.74 -0.06 -3.54 -0.06 -5.28 0 l0 -0.64 c1.08 -0.08 1.46 -0.24 1.46 -0.74 l0 -10.32 l-1.54 0 c-0.78 0 -1 0.28 -1.76 1.84 l-0.7 0 l0.72 -2.72 l0.64 0 c0.56 0.14 0.9 0.16 1.9 0.16 l4.48 0 c1 0 1.34 -0.02 1.9 -0.16 z M16.900000000000002 7.26 c3.38 0 5.8 2.72 5.8 6.56 c0 3.7 -2.38 6.46 -5.74 6.46 c-3.38 0 -5.8 -2.72 -5.8 -6.56 c0 -3.72 2.38 -6.46 5.74 -6.46 z M17.22 19.56 c1.6 0 2.98 -1.46 2.98 -5.2 c0 -3.66 -1.48 -6.38 -3.62 -6.38 c-1.54 0 -2.92 1.44 -2.92 5.18 c0 3.66 1.48 6.4 3.56 6.4 z M27.48 15.14 l0 3.5 c0 0.5 0.34 0.64 1.4 0.72 l0 0.64 c-1.72 -0.06 -3.46 -0.06 -5.18 0 l0 -0.64 c1.08 -0.08 1.42 -0.22 1.42 -0.72 l0 -9.44 c0 -0.54 -0.3 -0.9 -1.34 -0.98 l0 -0.64 c1.84 0.08 3.74 0 4.9 0 c4.22 0 5.32 1.56 5.32 3.42 c0 1.96 -1.62 3.42 -6.02 4.06 z M27.48 14.42 l0.5 -0.06 c2.82 -0.36 3.7 -1.62 3.7 -3.4 c0 -1.52 -0.8 -2.68 -2.66 -2.68 l-1.54 0 l0 6.14 z M39.86 7.58 c3.94 0 6.66 1.8 6.66 6.2 c0 4.72 -3.4 6.22 -5.54 6.22 c-1.1 0 -2.12 -0.32 -3.24 -0.32 c-1.04 0 -1.76 0.14 -2.74 0.32 l0 -0.66 c1 -0.22 1.42 -0.38 1.42 -0.94 l0 -9.16 c0 -0.62 -0.3 -0.94 -1.34 -1.02 l0 -0.64 c1.84 0.08 3.12 0 4.78 0 z M40.480000000000004 19.28 c2.56 0.06 3.46 -2.28 3.46 -5.52 c0 -3.22 -1.22 -5.52 -4 -5.5 c-0.3 0 -0.66 0 -1.16 0.04 l0 10.12 c0 0.72 0.76 0.84 1.7 0.86 z M51.34 18.62 c0 0.5 0.38 0.66 1.44 0.74 l0 0.64 c-1.72 -0.06 -3.54 -0.06 -5.26 0 l0 -0.64 c1.08 -0.08 1.46 -0.24 1.46 -0.74 l0 -9.66 c0 -0.5 -0.38 -0.66 -1.46 -0.74 l0 -0.64 c1.72 0.06 3.54 0.06 5.26 0 l0 0.64 c-1.06 0.08 -1.44 0.24 -1.44 0.74 l0 9.66 z M64.46000000000001 17.84 c0.38 1.02 0.56 1.42 1.96 1.52 l0 0.64 c-1.8 -0.06 -3.66 -0.06 -5.46 0 l0 -0.64 c1.34 -0.1 1.5 -0.32 1.2 -1.12 l-0.9 -2.44 l-4.08 0 l-0.86 2.52 c-0.24 0.76 0.52 0.94 1.8 1.04 l0 0.64 c-1.46 -0.06 -3.18 -0.06 -4.64 0 l0 -0.64 c1.32 -0.1 1.82 -0.42 2.14 -1.34 l3.58 -10.54 l1.36 0 z M57.4 15.1 l3.6 0 l-1.88 -5.08 z M76.30000000000001 16.72 l0.74 0 c-0.4 1.16 -0.56 2.2 -0.62 3.28 c-3.12 -0.06 -5.96 -0.06 -8.96 0 l0 -0.68 c1.08 -0.08 1.42 -0.22 1.42 -0.72 l0 -9.64 c0 -0.5 -0.38 -0.66 -1.46 -0.74 l0 -0.64 c1.72 0.06 3.54 0.06 5.26 0 l0 0.64 c-1.06 0.08 -1.44 0.24 -1.44 0.74 l0 10.06 c0 0.14 0.08 0.24 0.24 0.24 l1.78 0 c1.34 0 1.96 -0.32 2.4 -1.22 z M79.56000000000002 20.2 c-0.66 0 -1.22 -0.56 -1.22 -1.24 c0 -0.66 0.56 -1.22 1.22 -1.22 s1.22 0.56 1.22 1.22 c0 0.68 -0.56 1.24 -1.22 1.24 z M89.5 7.58 c1.6 0.06 3.22 0.06 4.7 0 l0 0.64 c-1.16 0.1 -1.9 0.24 -1.9 0.74 l0 11.04 l-0.7 0 l-6.94 -10.34 l0 8.96 c0 0.5 0.74 0.64 2.02 0.74 l0 0.64 c-1.6 -0.06 -3.22 -0.06 -4.7 0 l0 -0.64 c1.18 -0.1 1.9 -0.24 1.9 -0.74 l0 -9.48 c0 -0.5 -0.62 -0.84 -1.68 -0.92 l0 -0.64 c1.28 0.06 2.56 0.06 3.86 0 l5.44 8.22 l0 -6.84 c0 -0.5 -0.7 -0.64 -2 -0.74 l0 -0.64 z M101.44 14.1 c1.64 0.04 3.4 0.04 4.98 0 l0 0.62 l-0.46 0.08 c-0.84 0.14 -0.76 1.02 -0.76 2.44 c0 0.54 0.02 1.12 0.08 1.7 l0.36 0.04 c0.16 0.02 0.2 0.1 0.2 0.22 l0 0.5 c-0.36 -0.06 -0.74 -0.06 -1 -0.06 c-1.76 0 -2.3 0.64 -4.44 0.64 c-3.42 0 -5.9 -2.72 -5.9 -6.56 c0 -3.68 2.44 -6.46 5.8 -6.46 c1.44 0 1.92 0.42 3.1 0.42 c0.22 0 0.38 0 0.76 -0.08 c0.18 1.14 0.46 2.24 0.98 3.44 l-1.18 0 c-0.82 -1.88 -2.04 -3.06 -3.88 -3.06 c-1.64 0 -3.08 1.44 -3.08 5.18 c0 3.66 1.54 6.4 3.64 6.4 c2.28 0 2.38 -0.88 2.38 -3.24 c0 -1.16 0.04 -1.44 -1 -1.54 l-0.58 -0.06 l0 -0.62 z"></path></g><g id="SvgjsG1051" featureKey="TflPBd-0" transform="matrix(0.5171848247670249,0,0,0.5171848247670249,140.844844268965,60.89689105139785)" fill="#111111"><path d="M6.42 9.82 c2.12 0 4.28 1.72 4.28 5.28 c0 3.44 -2.26 5.16 -4.3 5.16 c-1.68 0 -2.06 -1.12 -3.02 -1.12 c-0.5 0 -0.88 0.3 -1.02 0.86 l-0.38 0 c-0.32 0 -0.46 -0.18 -0.46 -0.48 l0 -10.84 c0 -0.7 -0.44 -0.88 -1.22 -0.76 l0 -0.64 c1.76 -0.32 2.54 -1.1 3.02 -1.1 c0.32 0 0.46 0.18 0.46 0.58 l0 4.26 c0.5 -0.58 1.36 -1.2 2.64 -1.2 z M6.18 19.6 c1.5 0 2.08 -1.42 2.08 -3.94 c0 -2.96 -0.82 -5.12 -2.38 -5.12 c-0.94 0 -1.68 0.68 -2.1 1.26 l0 5.58 c0.04 1 1.2 2.22 2.4 2.22 z M31.169000000000004 17.88 c0 0.7 0.44 0.86 1.22 0.74 l0 0.62 c-1.76 0.42 -2.5 1 -2.98 1 c-0.36 0 -0.54 -0.26 -0.5 -0.66 l0.2 -1.76 c-0.44 0.66 -1.56 2.46 -3.42 2.46 c-1.6 0 -2.98 -0.76 -2.98 -3.54 l0 -5.28 c0 -0.5 -0.16 -0.7 -0.56 -0.68 l-0.6 0.02 l0 -0.68 l2.92 -0.22 c0.28 -0.02 0.5 0.12 0.5 0.44 l0 6.32 c0 1.5 0.22 2.58 1.34 2.58 c1.42 0 2.38 -1.86 2.6 -2.32 l0 -5.46 c0 -0.5 -0.16 -0.7 -0.56 -0.68 l-0.6 0.02 l0 -0.68 l2.9 -0.22 c0.32 -0.02 0.52 0.12 0.52 0.44 l0 7.54 z M45.338 8.4 c-0.66 0 -1.22 -0.54 -1.22 -1.2 s0.56 -1.2 1.22 -1.2 c0.64 0 1.2 0.54 1.2 1.2 s-0.56 1.2 -1.2 1.2 z M46.618 18.62 c0 0.5 0.54 0.66 1.22 0.74 l0 0.64 c-1.56 -0.06 -3.12 -0.06 -4.68 0 l0 -0.64 c0.66 -0.08 1.2 -0.24 1.2 -0.74 l0 -6.46 c0 -0.7 -0.44 -0.88 -1.22 -0.84 l0 -0.62 c1.84 -0.28 2.58 -0.94 3.06 -0.94 c0.32 0 0.54 0.16 0.54 0.52 c0 0.66 -0.12 1.4 -0.12 2.64 l0 5.7 z M61.647 18.1 c0 0.72 0.44 0.88 1.22 0.8 l0 0.6 c-1.74 0.4 -2.48 0.74 -2.98 0.74 c-0.34 0 -0.48 -0.16 -0.48 -0.56 l0 -11 c0 -0.7 -0.44 -0.88 -1.22 -0.76 l0 -0.64 c1.76 -0.32 2.5 -1.1 2.98 -1.1 c0.34 0 0.48 0.18 0.48 0.58 l0 11.34 z M82.876 17.78 c0 0.72 0.44 0.86 1.22 0.74 l0 0.72 c-1.74 0.42 -2.48 1 -2.98 1 c-0.34 0 -0.54 -0.24 -0.5 -0.64 l0.14 -1.1 c-0.28 0.78 -1.06 1.7 -2.68 1.7 c-2.16 0 -4.36 -1.8 -4.36 -5.28 c0 -3.32 2.26 -5.1 4.3 -5.1 c1.34 0 2.12 0.72 2.6 1.38 l0 -2.5 c0 -0.7 -0.44 -0.9 -1.22 -0.8 l0 -0.66 c1.76 -0.32 2.54 -1.06 3.02 -1.06 c0.32 0 0.46 0.18 0.46 0.58 l0 11.02 z M78.636 19.5 c1.16 0 1.86 -1.14 1.98 -2.1 l0 -5.42 c-0.48 -0.7 -1.26 -1.48 -2.26 -1.48 c-1.48 0 -2.2 1.38 -2.2 3.96 c0 2.76 0.92 5.04 2.48 5.04 z M97.345 8.4 c-0.66 0 -1.22 -0.54 -1.22 -1.2 s0.56 -1.2 1.22 -1.2 c0.64 0 1.2 0.54 1.2 1.2 s-0.56 1.2 -1.2 1.2 z M98.625 18.62 c0 0.5 0.54 0.66 1.22 0.74 l0 0.64 c-1.56 -0.06 -3.12 -0.06 -4.68 0 l0 -0.64 c0.66 -0.08 1.2 -0.24 1.2 -0.74 l0 -6.46 c0 -0.7 -0.44 -0.88 -1.22 -0.84 l0 -0.62 c1.84 -0.28 2.58 -0.94 3.06 -0.94 c0.32 0 0.54 0.16 0.54 0.52 c0 0.66 -0.12 1.4 -0.12 2.64 l0 5.7 z M120.27400000000002 18.62 c0 0.5 0.54 0.66 1.22 0.74 l0 0.64 c-1.56 -0.06 -3.12 -0.06 -4.7 0 l0 -0.64 c0.68 -0.06 1.22 -0.24 1.22 -0.74 l0 -5.32 c0 -1.5 -0.22 -2.5 -1.26 -2.5 c-1.38 0 -2.46 1.58 -2.68 2 l0 5.82 c0 0.5 0.54 0.68 1.22 0.74 l0 0.64 c-1.56 -0.06 -3.12 -0.06 -4.68 0 l0 -0.64 c0.66 -0.08 1.2 -0.24 1.2 -0.74 l0 -6.38 c0 -0.7 -0.44 -0.86 -1.22 -0.76 l0 -0.64 c1.76 -0.32 2.54 -1.1 3 -1.1 c0.34 0 0.52 0.24 0.48 0.62 l-0.18 1.66 c0.42 -0.64 1.62 -2.22 3.48 -2.22 c1.62 0 2.9 0.68 2.9 3.46 l0 5.36 z M141.323 9.84 c0.74 0 0.92 0.32 0.92 0.92 c0 0.46 -0.06 0.86 -0.54 0.84 c-0.36 -0.04 -0.58 -0.12 -0.86 -0.12 c-0.32 0 -0.38 0.22 -0.28 0.46 c0.16 0.4 0.32 0.84 0.32 1.46 c0 2.04 -1.62 3.52 -4.04 3.52 c-0.94 0 -1.58 -0.28 -2.14 -0.28 c-0.46 0 -0.66 0.24 -0.66 0.52 c0 0.46 0.52 0.68 1.64 0.84 l2.34 0.34 c2.44 0.36 3.68 1 3.68 2.8 c0 1.9 -2.14 3.2 -4.8 3.2 c-2.64 0 -4.5 -0.98 -4.5 -2.74 c0 -0.9 0.46 -1.56 1.34 -1.56 c0.54 0 0.96 0.26 0.96 0.78 c0 0.56 -0.2 0.68 -0.2 1.38 c0 0.76 0.84 1.52 2.44 1.52 c1.8 0 2.86 -0.82 2.86 -2.26 c0 -0.8 -0.48 -1.12 -1.66 -1.34 l-3.5 -0.62 c-1.6 -0.28 -2.2 -0.94 -2.2 -1.78 s0.7 -1.54 2 -1.5 c-0.98 -0.52 -1.68 -1.6 -1.68 -2.82 c0 -2.02 1.5 -3.58 4.02 -3.58 c1.62 0 2.48 0.66 3.1 1.3 c0.2 -0.76 0.64 -1.28 1.44 -1.28 z M136.823 16.240000000000002 c1.38 0 1.8 -1.48 1.8 -2.82 c0 -1.32 -0.42 -2.92 -1.8 -2.92 s-1.8 1.6 -1.8 2.92 c0 1.34 0.42 2.82 1.8 2.82 z M175.78100000000003 17.8 c0.24 0 0.36 0.2 0.22 0.46 c-0.56 1.12 -1.58 1.94 -3.3 1.94 c-2.64 0 -4.86 -1.88 -4.86 -5.26 c0 -3.22 2.2 -5.12 4.64 -5.12 c2.2 0 3.68 1.22 3.7 2.6 c0 0.46 -0.36 0.98 -1.08 0.98 c-0.66 0 -1.08 -0.42 -1.04 -0.94 c0.04 -0.98 -0.2 -1.96 -1.36 -1.96 c-1.58 0 -2.4 1.64 -2.4 4.3 c0 2.78 1 4.72 2.58 4.72 c1.34 0 1.98 -0.76 2.18 -1.5 c0.04 -0.16 0.14 -0.22 0.26 -0.22 l0.46 0 z M192.07000000000005 9.82 c2.3 0 4.68 1.72 4.68 5.08 c0 3.46 -2.38 5.3 -4.64 5.3 c-2.3 0 -4.68 -1.84 -4.68 -5.14 c0 -3.52 2.38 -5.24 4.64 -5.24 z M194.29000000000005 15.48 c0 -2.98 -0.96 -4.98 -2.5 -4.98 c-1.22 0 -1.9 1.3 -1.9 3.98 c0 3 0.96 5.04 2.48 5.04 c1.24 0 1.92 -1.34 1.92 -4.04 z M223.03900000000004 18.62 c0 0.5 0.54 0.66 1.22 0.74 l0 0.64 c-1.56 -0.06 -3.12 -0.06 -4.68 0 l0 -0.64 c0.66 -0.06 1.2 -0.24 1.2 -0.74 l0 -5.38 c0 -1.44 -0.22 -2.44 -1.16 -2.44 c-1.2 0 -2.22 1.36 -2.52 2.02 l0 5.8 c0 0.5 0.54 0.68 1.24 0.74 l0 0.64 c-1.58 -0.06 -3.14 -0.06 -4.7 0 l0 -0.64 c0.68 -0.06 1.2 -0.24 1.2 -0.74 l0 -5.38 c0 -1.44 -0.22 -2.44 -1.16 -2.44 c-1.22 0 -2.22 1.36 -2.5 2.02 l0 5.8 c0 0.5 0.54 0.68 1.22 0.74 l0 0.64 c-1.56 -0.06 -3.12 -0.06 -4.68 0 l0 -0.64 c0.66 -0.08 1.2 -0.24 1.2 -0.74 l0 -6.38 c0 -0.7 -0.44 -0.86 -1.22 -0.76 l0 -0.64 c1.76 -0.32 2.54 -1.1 3 -1.1 c0.34 0 0.52 0.24 0.48 0.62 l-0.18 1.64 c0.42 -0.72 1.5 -2.2 3.58 -2.2 c1.28 0 2.14 0.8 2.4 2.2 c0.38 -0.72 1.46 -2.2 3.56 -2.2 c1.66 0 2.5 1 2.5 3.08 l0 5.74 z M250.12800000000004 18.62 c0 0.5 0.54 0.66 1.22 0.74 l0 0.64 c-1.56 -0.06 -3.12 -0.06 -4.68 0 l0 -0.64 c0.66 -0.06 1.2 -0.24 1.2 -0.74 l0 -5.38 c0 -1.44 -0.22 -2.44 -1.16 -2.44 c-1.2 0 -2.22 1.36 -2.52 2.02 l0 5.8 c0 0.5 0.54 0.68 1.24 0.74 l0 0.64 c-1.58 -0.06 -3.14 -0.06 -4.7 0 l0 -0.64 c0.68 -0.06 1.2 -0.24 1.2 -0.74 l0 -5.38 c0 -1.44 -0.22 -2.44 -1.16 -2.44 c-1.22 0 -2.22 1.36 -2.5 2.02 l0 5.8 c0 0.5 0.54 0.68 1.22 0.74 l0 0.64 c-1.56 -0.06 -3.12 -0.06 -4.68 0 l0 -0.64 c0.66 -0.08 1.2 -0.24 1.2 -0.74 l0 -6.38 c0 -0.7 -0.44 -0.86 -1.22 -0.76 l0 -0.64 c1.76 -0.32 2.54 -1.1 3 -1.1 c0.34 0 0.52 0.24 0.48 0.62 l-0.18 1.64 c0.42 -0.72 1.5 -2.2 3.58 -2.2 c1.28 0 2.14 0.8 2.4 2.2 c0.38 -0.72 1.46 -2.2 3.56 -2.2 c1.66 0 2.5 1 2.5 3.08 l0 5.74 z M271.4170000000001 17.88 c0 0.7 0.44 0.86 1.22 0.74 l0 0.62 c-1.76 0.42 -2.5 1 -2.98 1 c-0.36 0 -0.54 -0.26 -0.5 -0.66 l0.2 -1.76 c-0.44 0.66 -1.56 2.46 -3.42 2.46 c-1.6 0 -2.98 -0.76 -2.98 -3.54 l0 -5.28 c0 -0.5 -0.16 -0.7 -0.56 -0.68 l-0.6 0.02 l0 -0.68 l2.92 -0.22 c0.28 -0.02 0.5 0.12 0.5 0.44 l0 6.32 c0 1.5 0.22 2.58 1.34 2.58 c1.42 0 2.38 -1.86 2.6 -2.32 l0 -5.46 c0 -0.5 -0.16 -0.7 -0.56 -0.68 l-0.6 0.02 l0 -0.68 l2.9 -0.22 c0.32 -0.02 0.52 0.12 0.52 0.44 l0 7.54 z M292.96600000000007 18.62 c0 0.5 0.54 0.66 1.22 0.74 l0 0.64 c-1.56 -0.06 -3.12 -0.06 -4.7 0 l0 -0.64 c0.68 -0.06 1.22 -0.24 1.22 -0.74 l0 -5.32 c0 -1.5 -0.22 -2.5 -1.26 -2.5 c-1.38 0 -2.46 1.58 -2.68 2 l0 5.82 c0 0.5 0.54 0.68 1.22 0.74 l0 0.64 c-1.56 -0.06 -3.12 -0.06 -4.68 0 l0 -0.64 c0.66 -0.08 1.2 -0.24 1.2 -0.74 l0 -6.38 c0 -0.7 -0.44 -0.86 -1.22 -0.76 l0 -0.64 c1.76 -0.32 2.54 -1.1 3 -1.1 c0.34 0 0.52 0.24 0.48 0.62 l-0.18 1.66 c0.42 -0.64 1.62 -2.22 3.48 -2.22 c1.62 0 2.9 0.68 2.9 3.46 l0 5.36 z M307.13500000000005 8.4 c-0.66 0 -1.22 -0.54 -1.22 -1.2 s0.56 -1.2 1.22 -1.2 c0.64 0 1.2 0.54 1.2 1.2 s-0.56 1.2 -1.2 1.2 z M308.415 18.62 c0 0.5 0.54 0.66 1.22 0.74 l0 0.64 c-1.56 -0.06 -3.12 -0.06 -4.68 0 l0 -0.64 c0.66 -0.08 1.2 -0.24 1.2 -0.74 l0 -6.46 c0 -0.7 -0.44 -0.88 -1.22 -0.84 l0 -0.62 c1.84 -0.28 2.58 -0.94 3.06 -0.94 c0.32 0 0.54 0.16 0.54 0.52 c0 0.66 -0.12 1.4 -0.12 2.64 l0 5.7 z M325.764 19.42 c-0.38 0.36 -1.12 0.72 -1.94 0.72 c-1.52 0 -2.56 -0.78 -2.56 -2.76 l0 -6.66 l-0.86 0 c-0.14 0 -0.22 -0.1 -0.22 -0.24 l0 -0.28 c0 -0.14 0.08 -0.22 0.22 -0.22 c1.36 0 1.92 -0.96 2.14 -2.72 l0.98 0 l0 2.72 l2.04 0 c0.14 0 0.22 0.08 0.22 0.22 l0 0.28 c0 0.14 -0.08 0.24 -0.22 0.24 l-2.04 0 l0 7.04 c0 0.8 0.18 1.5 1 1.5 c0.54 0 1 -0.34 1.24 -0.64 l0 0.8 z M339.033 8.4 c-0.66 0 -1.22 -0.54 -1.22 -1.2 s0.56 -1.2 1.22 -1.2 c0.64 0 1.2 0.54 1.2 1.2 s-0.56 1.2 -1.2 1.2 z M340.313 18.62 c0 0.5 0.54 0.66 1.22 0.74 l0 0.64 c-1.56 -0.06 -3.12 -0.06 -4.68 0 l0 -0.64 c0.66 -0.08 1.2 -0.24 1.2 -0.74 l0 -6.46 c0 -0.7 -0.44 -0.88 -1.22 -0.84 l0 -0.62 c1.84 -0.28 2.58 -0.94 3.06 -0.94 c0.32 0 0.54 0.16 0.54 0.52 c0 0.66 -0.12 1.4 -0.12 2.64 l0 5.7 z M360.642 17.8 c0.2 0 0.28 0.2 0.14 0.46 c-0.54 1.12 -1.62 1.94 -3.36 1.94 c-2.68 0 -4.84 -1.82 -4.84 -5.22 c0 -3.32 2.24 -5.16 4.6 -5.16 c2.3 0 4.12 1.6 4.12 4.12 c0 0.76 -0.3 1.26 -1.08 1.26 l-5.24 0 c0.02 2.52 0.92 4.32 2.74 4.32 c1.02 0 1.74 -0.44 2.26 -1.42 c0.1 -0.18 0.16 -0.3 0.38 -0.3 l0.28 0 z M359.102 14.440000000000001 c0 -2.46 -0.54 -3.94 -1.92 -3.94 c-1.42 0 -2.18 1.48 -2.2 3.94 l4.12 0 z M379.77099999999996 17.259999999999998 c0 1.74 -1.68 2.98 -3.18 2.98 c-1.34 0 -2.08 -0.7 -2.68 -0.7 c-0.28 0 -0.44 0.16 -0.46 0.44 l-0.64 0 l-0.24 -2.72 l0.32 0 c0.26 0 0.48 0.04 0.56 0.32 c0.3 1.1 1.82 2.02 2.88 2.02 c0.92 0 1.5 -0.62 1.5 -1.46 c0 -1.08 -0.94 -1.54 -2.32 -2.24 c-1.4 -0.7 -2.96 -1.62 -2.96 -3.38 c0 -1.52 1.3 -2.7 3.02 -2.7 c1.32 0 1.76 0.56 2.28 0.56 c0.26 0 0.42 -0.14 0.48 -0.4 l0.66 0 l0.18 2.62 l-0.34 0 c-0.26 0 -0.4 -0.08 -0.52 -0.32 c-0.5 -1.12 -1.52 -1.86 -2.44 -1.86 s-1.46 0.66 -1.46 1.42 c0 0.94 0.7 1.4 1.84 1.96 c1.26 0.6 3.52 1.52 3.52 3.46 z M392.79999999999995 22.2 c-0.14 0.12 -0.26 0.12 -0.36 0.02 l-0.18 -0.22 c0.44 -0.46 0.7 -1.1 0.7 -1.64 c0 -0.06 0 -0.14 -0.04 -0.22 c-0.1 0.02 -0.16 0.04 -0.32 0.04 c-0.68 0 -1.18 -0.54 -1.18 -1.18 c0 -0.74 0.54 -1.24 1.26 -1.24 c0.86 0 1.36 0.76 1.36 1.66 c0 1.1 -0.56 2.14 -1.24 2.78 z"></path></g>
			</g>
		</svg>
	